<svg width="35" height="35" viewBox="0 0 35 35" fill="none" xmlns="http://www.w3.org/2000/svg">
<circle cx="17.3571" cy="17.3571" r="17.3571" fill="#F9F9F9"/>
<path d="M18.3651 23.6001C18.8936 23.6001 19.1097 23.2377 19.1036 22.7834C19.0767 21.0722 19.7233 20.151 20.8905 21.3516C22.1818 22.6798 22.4491 23.6001 24.0173 23.6001H26.7943C27.4955 23.6001 27.7714 23.3681 27.7714 23.0039C27.7714 22.2335 26.5383 20.874 25.4934 19.876C24.0303 18.4791 23.9617 18.446 25.2218 16.7643C26.7847 14.6764 28.8293 12.0012 27.0208 12.0012H23.566C22.896 12.0012 22.8474 12.3895 22.6088 12.9679C21.7453 15.0629 20.1042 17.7766 19.4812 17.3615C18.8294 16.9285 19.1279 15.2138 19.1774 12.6653C19.1904 11.9922 19.187 11.5307 18.1872 11.2915C17.6414 11.1621 17.1103 11.1085 16.6173 11.1085C14.6448 11.1085 13.284 11.9592 14.0573 12.1074C15.4206 12.3689 15.2896 15.403 14.972 16.7134C14.4183 18.995 12.3372 14.9067 11.4703 12.8706C11.2611 12.3814 11.1969 12.0012 10.4506 12.0012H7.62585C7.19888 12.0012 6.94287 12.144 6.94287 12.4618C6.94287 12.9991 9.51162 18.4603 11.9641 21.1829C14.3558 23.8385 16.7197 23.6001 18.3651 23.6001Z" fill="#5B5B5B"/>
</svg>
